@startuml
enum "ShipSegmentState" as C_0014256742677139282670
enum C_0014256742677139282670 {
INTACT
DAMAGED
DESTROYED
}
enum "ShipOrientation" as C_0002579181642537833876
enum C_0002579181642537833876 {
HORIZONTAL
VERTICAL
}
enum "CellVisibilityState" as C_0003333043679234439357
enum C_0003333043679234439357 {
UNKNOWN
BLANK
SHIP
}
enum "Stage" as C_0001935036015363084261
enum C_0001935036015363084261 {
NOT_STARTED
CREATING_FIELD
CREATING_SHIPS
PLACING_SHIPS
PLAYER_TURN
AI_TURN
GAME_OVER
EXIT
}
class "std::vector<Ship>" as C_0010668212532447068380
class C_0010668212532447068380 {
__
}
class "std::pair<int,int>" as C_0006524010458157121833
class C_0006524010458157121833 {
__
}
class "std::basic_istream<char>" as C_0005505409806480479128
class C_0005505409806480479128 {
__
}
class "std::shared_ptr<Ability>" as C_0012342435662910727844
class C_0012342435662910727844 {
__
}
class "std::queue<std::shared_ptr<Ability>>" as C_0008193623610420284737
class C_0008193623610420284737 {
__
}
class "std::function<std::shared_ptr<Ability>()>" as C_0014703876471129105020
class C_0014703876471129105020 {
__
}
class "std::vector<std::function<std::shared_ptr<Ability>()>>" as C_0010378818160678026980
class C_0010378818160678026980 {
__
}
class "std::vector<int>" as C_0009228492206209329687
class C_0009228492206209329687 {
__
}
class "std::unique_ptr<RendererState>" as C_0001291546338622865405
class C_0001291546338622865405 {
__
}
class "std::unordered_map<char,InputCommands>" as C_0014808004694673374516
class C_0014808004694673374516 {
__
}
enum "AbilityType" as C_0006740456236575953687
enum C_0006740456236575953687 {
DoubleDamage
Scanner
Bombard
}
class "Ship" as C_0014529657433315016423
class C_0014529657433315016423 {
+Ship(int length) : void
+Ship(const Ship & other) : void
+Ship(Ship && other) noexcept : void
+~Ship() : void
..
+operator=(const Ship & other) : Ship &
+operator=(Ship && other) noexcept : Ship &
..
+operator!=(const Ship & other) const : bool
+operator==(const Ship & other) const : bool
..
+getLength() const : size_t
+getSegmentHP(size_t index) const : int
+getSegmentState(size_t index) const : ShipSegmentState
+isAlive() const : bool
+takeDamage(size_t segment_index, int damage) : void
__
-health : size_t
-length : size_t
-segments : Segment *
}
class "Ship::Segment" as C_0000674658759292391449
class C_0000674658759292391449 {
__
+hp : int
+state : ShipSegmentState
}
class "ShipManager" as C_0017499122254539489506
class C_0017499122254539489506 {
+ShipManager() : void
+ShipManager(size_t count, size_t * lengths) : void
+~ShipManager() constexpr = default : void
..
+operator!=(const ShipManager & other) const : bool
+operator==(const ShipManager & other) const : bool
..
+getAliveCount() const : size_t
+getShip(size_t index) : Ship &
+getShip(size_t index) const : const Ship &
+getShipCount() const : size_t
+getShipLength(size_t index) const : size_t
__
-ships : std::vector<Ship>
-ships_count : size_t
}
class "ShipField" as C_0003843296779074973901
class C_0003843296779074973901 {
+ShipField() : void
+ShipField(int width, int height) : void
+ShipField(const ShipField & other) : void
+ShipField(ShipField && other) noexcept : void
+~ShipField() : void
..
+operator=(const ShipField & other) : ShipField &
+operator=(ShipField && other) noexcept : ShipField &
..
+operator!=(const ShipField & other) const : bool
+operator==(const ShipField & other) const : bool
..
+attackShip(int x, int y, bool expose_cell = true, int damage = 1) : bool
+checkShipCollision(int ship_length, int x, int y, ShipOrientation orientation) const : bool
+clearField() : void
-exposeSurroundingShipCells(int ship_length, int x, int y) : void
+getCellVisibilityState(int x, int y) const : CellVisibilityState
+getHeight() const : size_t
+getIsShip(int x, int y) const : bool
+getShipHead(int x, int y) const : std::pair<int,int>
+getShipOrientation(int x, int y) const : ShipOrientation
+getShipSegmentState(int x, int y) const : ShipSegmentState
+getWidth() const : size_t
+placeShip(Ship & ship, int x, int y, ShipOrientation orientation) : void
+restoreShips(std::istream & is, ShipManager & manager) : void
__
-field : FieldElement **
-height : size_t
-width : size_t
}
class "ShipField::FieldElement" as C_0000316359785794417378
class C_0000316359785794417378 {
__
+ship : Ship *
+ship_segment_index : size_t
+state : CellVisibilityState
}
class "AbilityResults" as C_0005219465313958275113
class C_0005219465313958275113 {
__
+BombardDamageDealt : bool
+DoubleDamageIsActive : bool
+ScannerShipFound : bool
}
class "AbilityInput" as C_0006255146489372148425
class C_0006255146489372148425 {
__
+target_field : ShipField &
+target_manager : ShipManager &
+x : int
+y : int
}
abstract "Ability" as C_0017635961848386255115
abstract C_0017635961848386255115 {
+~Ability() constexpr = default : void
..
{abstract} +getType() const = 0 : AbilityType
{abstract} +use(AbilityInput & input, AbilityResults & ret) = 0 : void
__
}
class "AbilityManager" as C_0002235219345516323367
class C_0002235219345516323367 {
+AbilityManager() : void
..
+addRandomAbility() : void
+getPendingAbilityType() const : AbilityType
-getRandomAbility() : std::shared_ptr<Ability>
+useAbility(AbilityInput input, AbilityResults & ability_results) : void
__
-abilities : std::queue<std::shared_ptr<Ability>>
-ability_factory : const std::vector<std::function<std::shared_ptr<Ability> ()>>
}
class "Player" as C_0003605716991605700936
class C_0003605716991605700936 {
+Player() : void
..
+attack(Player & target_player, int x, int y, int damage, bool expose_cell = true) : void
+createField(int width, int height) : void
+createShipManager(size_t count, size_t * lengths) : void
+getAbilityResults() const : AbilityResults
+getAliveCount() const : size_t
+getField() const : const ShipField &
+getPendingAbilityType() const : AbilityType
+getShipCount() const : size_t
+getShipLength(size_t index) const : size_t
+placeShip(Ship & ship, int x, int y, ShipOrientation orientation) : void
+placeShipByIndex(int index, int x, int y, ShipOrientation orientation) : void
+reset() : void
+useAbility(Player & target_player, int x, int y) : void
__
-ability_manager : AbilityManager
-ability_results : AbilityResults
-field : ShipField
+scanner_is_active : bool
-ship_manager : ShipManager
}
class "AiPlayer" as C_0005644868336032600742
class C_0005644868336032600742 {
+AiPlayer(Player & player) : void
..
+attackRandom(Player & targetPlayer) : void
+createField(int width, int height) : void
+createShipManager(size_t count, size_t * lengths) : void
+getPlayer() const : const Player &
+placeShipsRandom() : void
+reset() : void
__
-controlled_player : Player &
}
class "GameState" as C_0004356735495323104445
class C_0004356735495323104445 {
+GameState() : void
..
+getAiController() : AiPlayer &
+getCurrentStage() : Stage &
+getPlayer() : Player &
+getPlayer2() : Player &
+loadGame() : void
+saveGame() : void
__
-ai_controller : AiPlayer
-current_stage : Stage
-player : Player
-player2 : Player
}
class "Game" as C_0017470460303031448044
class C_0017470460303031448044 {
+Game() : void
..
+attack(int x, int y) : void
+checkWin() : void
+createField(int width, int height) : void
+createShips(size_t count, size_t * lengths) : void
+exit() : void
+getAiController() const : const AiPlayer &
+getCurrShipIndex() const : size_t
+getCurrentStage() const : Stage
+getPendingAbilityType() const : AbilityType
+getPlayer() const : const Player &
+getPlayer2() const : const Player &
+initAiPlayer() : void
+loadGame() : void
+nextStage() : void
+placeShip(int x, int y, ShipOrientation orientation) : void
-placeShipByIndex(size_t index, int x, int y, ShipOrientation orientation) : void
+resetGame() : void
+saveGame() : void
+useAbility(int x, int y) : void
__
-ai_controller : AiPlayer &
-current_ship_index : size_t
-current_stage : Stage &
-game_state : GameState
-player : Player &
-player2 : Player &
}
enum "InputCommands" as C_0015616200877727441448
enum C_0015616200877727441448 {
Invalid
CreateField
CreateShips
PlaceShip
InitAiPlayer
Attack
UseAbility
ResetGame
SaveGame
LoadGame
Exit
}
class "InputCommand" as C_0010946465140106035203
class C_0010946465140106035203 {
__
+arguments : std::vector<int>
+command : InputCommands
}
class "GameController<InputHandler>" as C_0003345951617376883214
class C_0003345951617376883214 {
+GameController(Game & game) : void
..
-executeCommand(const InputCommand & command) : void
+processInput() : void
__
-game : Game &
-input_handler : InputHandler
}
abstract "RendererState" as C_0007936739686845891522
abstract C_0007936739686845891522 {
+~RendererState() constexpr = default : void
..
{abstract} +render(sf::RenderWindow & window) = 0 : void
{abstract} +update() = 0 : void
__
}
class "Gui" as C_0002504077655750104390
class C_0002504077655750104390 {
+Gui(const Game & game) : void
..
-changeState() : void
-pollEvents() : void
+render() : void
-update() : void
__
-event : sf::Event
-game : const Game &
-state : std::unique_ptr<RendererState>
-window : sf::RenderWindow
}
class "GameRenderer<Renderer>" as C_0004798759085349793178
class C_0004798759085349793178 {
+GameRenderer(Game & game) : void
..
+onGameStateChanged() : void
+render() : void
__
-renderer : Renderer
}
class "TerminalInput" as C_0001203133041956536381
class C_0001203133041956536381 {
+TerminalInput(std::istream & input_stream = std::cin) : void
..
+getCommand() const : const InputCommand &
-loadCommandsMapping() : void
+processInput() : void
__
-command : InputCommand
-command_map : std::unordered_map<char,InputCommands>
-input_stream : std::istream &
}
C_0010668212532447068380 ..> C_0014529657433315016423
C_0012342435662910727844 ..> C_0017635961848386255115
C_0008193623610420284737 ..> C_0012342435662910727844
C_0014703876471129105020 ..> C_0012342435662910727844
C_0010378818160678026980 ..> C_0014703876471129105020
C_0001291546338622865405 ..> C_0007936739686845891522
C_0014808004694673374516 ..> C_0015616200877727441448
C_0014529657433315016423 ..> C_0014256742677139282670
C_0014529657433315016423 --> C_0000674658759292391449 : -segments
C_0000674658759292391449 --+ C_0014529657433315016423
C_0000674658759292391449 o-- C_0014256742677139282670 : +state
C_0017499122254539489506 ..> C_0014529657433315016423
C_0017499122254539489506 o-- C_0010668212532447068380 : -ships
C_0003843296779074973901 ..> C_0002579181642537833876
C_0003843296779074973901 ..> C_0003333043679234439357
C_0003843296779074973901 ..> C_0014256742677139282670
C_0003843296779074973901 ..> C_0014529657433315016423
C_0003843296779074973901 ..> C_0006524010458157121833
C_0003843296779074973901 ..> C_0005505409806480479128
C_0003843296779074973901 ..> C_0017499122254539489506
C_0003843296779074973901 --> C_0000316359785794417378 : -field
C_0000316359785794417378 --+ C_0003843296779074973901
C_0000316359785794417378 o-- C_0003333043679234439357 : +state
C_0000316359785794417378 --> C_0014529657433315016423 : +ship
C_0006255146489372148425 --> C_0003843296779074973901 : +target_field
C_0006255146489372148425 --> C_0017499122254539489506 : +target_manager
C_0017635961848386255115 ..> C_0006255146489372148425
C_0017635961848386255115 ..> C_0005219465313958275113
C_0017635961848386255115 ..> C_0006740456236575953687
C_0002235219345516323367 ..> C_0012342435662910727844
C_0002235219345516323367 ..> C_0017635961848386255115
C_0002235219345516323367 ..> C_0006255146489372148425
C_0002235219345516323367 ..> C_0005219465313958275113
C_0002235219345516323367 ..> C_0006740456236575953687
C_0002235219345516323367 o-- C_0008193623610420284737 : -abilities
C_0002235219345516323367 o-- C_0010378818160678026980 : -ability_factory
C_0003605716991605700936 ..> C_0014529657433315016423
C_0003605716991605700936 ..> C_0002579181642537833876
C_0003605716991605700936 ..> C_0006740456236575953687
C_0003605716991605700936 o-- C_0017499122254539489506 : -ship_manager
C_0003605716991605700936 o-- C_0003843296779074973901 : -field
C_0003605716991605700936 o-- C_0002235219345516323367 : -ability_manager
C_0003605716991605700936 o-- C_0005219465313958275113 : -ability_results
C_0005644868336032600742 --> C_0003605716991605700936 : -controlled_player
C_0004356735495323104445 o-- C_0003605716991605700936 : -player
C_0004356735495323104445 o-- C_0003605716991605700936 : -player2
C_0004356735495323104445 o-- C_0005644868336032600742 : -ai_controller
C_0004356735495323104445 o-- C_0001935036015363084261 : -current_stage
C_0017470460303031448044 ..> C_0002579181642537833876
C_0017470460303031448044 ..> C_0006740456236575953687
C_0017470460303031448044 o-- C_0004356735495323104445 : -game_state
C_0017470460303031448044 --> C_0003605716991605700936 : -player
C_0017470460303031448044 --> C_0003605716991605700936 : -player2
C_0017470460303031448044 --> C_0005644868336032600742 : -ai_controller
C_0017470460303031448044 --> C_0001935036015363084261 : -current_stage
C_0010946465140106035203 o-- C_0015616200877727441448 : +command
C_0010946465140106035203 o-- C_0009228492206209329687 : +arguments
C_0003345951617376883214 ..> C_0010946465140106035203
C_0003345951617376883214 --> C_0017470460303031448044 : -game
C_0002504077655750104390 --> C_0017470460303031448044 : -game
C_0002504077655750104390 o-- C_0001291546338622865405 : -state
C_0004798759085349793178 ..> C_0017470460303031448044
C_0001203133041956536381 o-- C_0014808004694673374516 : -command_map
C_0001203133041956536381 --> C_0005505409806480479128 : -input_stream
C_0001203133041956536381 o-- C_0010946465140106035203 : -command

'Generated with clang-uml, version 0.5.5
'LLVM version clang version 18.1.8
@enduml
