@startuml
class "std::vector<Ship>" as C_0010668212532447068380
class C_0010668212532447068380 {
__
}
enum "ShipSegmentState" as C_0014256742677139282670
enum C_0014256742677139282670 {
INTACT
DAMAGED
DESTROYED
}
enum "ShipOrientation" as C_0002579181642537833876
enum C_0002579181642537833876 {
HORIZONTAL
VERTICAL
}
enum "CellVisibilityState" as C_0003333043679234439357
enum C_0003333043679234439357 {
UNKNOWN
BLANK
SHIP
}
enum "Stage" as C_0001935036015363084261
enum C_0001935036015363084261 {
NOT_STARTED
CREATING_FIELD
CREATING_SHIPS
PLACING_SHIPS
PLAYER_TURN
AI_TURN
GAME_OVER
EXIT
}
class "Ship" as C_0014529657433315016423
class C_0014529657433315016423 {
+Ship(int length) : void
+Ship(const Ship & other) : void
+Ship(Ship && other) noexcept : void
+~Ship() : void
..
+operator=(const Ship & other) : Ship &
+operator=(Ship && other) noexcept : Ship &
..
+operator!=(const Ship & other) const : bool
+operator==(const Ship & other) const : bool
..
+getLength() const : size_t
+getSegmentHP(size_t index) const : int
+getSegmentState(size_t index) const : ShipSegmentState
+isAlive() const : bool
+takeDamage(size_t segment_index, int damage) : void
__
-health : size_t
-length : size_t
-segments : Segment *
}
class "Ship::Segment" as C_0000674658759292391449
class C_0000674658759292391449 {
__
+hp : int
+state : ShipSegmentState
}
class "ShipManager" as C_0017499122254539489506
class C_0017499122254539489506 {
+ShipManager() : void
+ShipManager(size_t count, size_t * lengths) : void
+~ShipManager() constexpr = default : void
..
+operator!=(const ShipManager & other) const : bool
+operator==(const ShipManager & other) const : bool
..
+getAliveCount() const : size_t
+getShip(size_t index) : Ship &
+getShip(size_t index) const : const Ship &
+getShipCount() const : size_t
+getShipLength(size_t index) const : size_t
__
-ships : std::vector<Ship>
-ships_count : size_t
}
C_0010668212532447068380 ..> C_0014529657433315016423
C_0014529657433315016423 ..> C_0014256742677139282670
C_0014529657433315016423 --> C_0000674658759292391449 : -segments
C_0000674658759292391449 --+ C_0014529657433315016423
C_0000674658759292391449 o-- C_0014256742677139282670 : +state
C_0017499122254539489506 ..> C_0014529657433315016423
C_0017499122254539489506 o-- C_0010668212532447068380 : -ships

'Generated with clang-uml, version 0.5.5
'LLVM version clang version 18.1.8
@enduml
